<svg width="17" height="18" viewBox="0 0 17 18" fill="none" xmlns="http://www.w3.org/2000/svg">
<g clip-path="url(#clip0_381_1500)">
<path d="M8.39187 17.2798C12.8756 17.2798 16.5103 13.6451 16.5103 9.1614C16.5103 4.67771 12.8756 1.04297 8.39187 1.04297C3.90818 1.04297 0.273438 4.67771 0.273438 9.1614C0.273438 13.6451 3.90818 17.2798 8.39187 17.2798Z" fill="#1B1B1B" stroke="white" stroke-width="0.550402"/>
<path fill-rule="evenodd" clip-rule="evenodd" d="M10.7727 6.78041C10.8828 6.89049 11.0617 6.87673 11.1442 6.75289C11.2268 6.65657 11.213 6.50521 11.1167 6.42265C10.2085 5.55577 9.3967 5.11544 8.04821 5.18424C6.63092 5.25305 5.37876 5.99609 5.46132 7.56473C5.53012 8.9545 6.8786 9.46362 8.06197 9.9177C8.97013 10.2617 9.76822 10.5644 9.8095 11.2111C9.85078 11.9267 9.12149 12.3532 8.48853 12.3945C7.29141 12.4633 6.58964 12.0368 5.80532 11.2799C5.709 11.1836 5.55764 11.1836 5.46132 11.2662C5.35124 11.3625 5.35124 11.5276 5.44756 11.6377C6.3282 12.5184 7.23637 12.9587 8.55733 12.8899C9.8783 12.7936 11.502 12.0505 11.4194 10.4819C11.3506 9.11962 10.0572 8.6105 8.88757 8.17018C7.92437 7.79866 7.02997 7.45465 6.98869 6.67033C6.96117 6.10617 7.63541 5.69337 8.11701 5.66585C9.28661 5.61081 10.0159 6.02361 10.7727 6.78041ZM10.9241 10.5094C10.9241 11.1148 10.5938 11.6377 10.0985 11.9404L10.0709 11.9267C10.2498 11.679 10.2773 11.3625 10.2773 11.0598C10.2773 10.1654 9.30037 9.82138 8.26837 9.44986C7.12629 9.03706 5.92916 8.6105 5.92916 7.39961C5.92916 6.84921 6.17684 6.25753 6.65844 5.98233L6.6722 6.00985C6.54836 6.27129 6.49332 6.56025 6.49332 6.84921C6.49332 7.83994 7.58037 8.23898 8.68117 8.65178C9.8095 9.06458 10.9241 9.47738 10.9241 10.5094Z" fill="white"/>
<path d="M8.32314 15.6282C11.9283 15.6282 14.8592 12.6973 14.8592 9.09218C14.8592 5.48704 11.9283 2.55615 8.32314 2.55615C4.718 2.55615 1.78711 5.48704 1.78711 9.09218C1.78711 12.6973 4.718 15.6282 8.32314 15.6282Z" stroke="white" stroke-width="0.275201" stroke-linecap="round"/>
</g>
<defs>
<clipPath id="clip0_381_1500">
<rect width="16.7873" height="16.7873" fill="white" transform="translate(-0.00195312 0.767578)"/>
</clipPath>
</defs>
</svg>
