<svg width="51" height="50" viewBox="0 0 51 50" fill="none" xmlns="http://www.w3.org/2000/svg">
<rect x="1" y="0.5" width="49" height="49" rx="7.5" fill="#1E1E1E"/>
<rect x="1" y="0.5" width="49" height="49" rx="7.5" stroke="#2A2A2A"/>
<path d="M19.5 35C18.95 35 18.4793 34.8043 18.088 34.413C17.6967 34.0217 17.5007 33.5507 17.5 33V23C17.5 22.45 17.696 21.9793 18.088 21.588C18.48 21.1967 18.9507 21.0007 19.5 21H20.5V19C20.5 17.6167 20.9877 16.4377 21.963 15.463C22.9383 14.4883 24.1173 14.0007 25.5 14C26.8827 13.9993 28.062 14.487 29.038 15.463C30.014 16.439 30.5013 17.618 30.5 19V21H31.5C32.05 21 32.521 21.196 32.913 21.588C33.305 21.98 33.5007 22.4507 33.5 23V33C33.5 33.55 33.3043 34.021 32.913 34.413C32.5217 34.805 32.0507 35.0007 31.5 35H19.5ZM25.5 30C26.05 30 26.521 29.8043 26.913 29.413C27.305 29.0217 27.5007 28.5507 27.5 28C27.4993 27.4493 27.3037 26.9787 26.913 26.588C26.5223 26.1973 26.0513 26.0013 25.5 26C24.9487 25.9987 24.478 26.1947 24.088 26.588C23.698 26.9813 23.502 27.452 23.5 28C23.498 28.548 23.694 29.019 24.088 29.413C24.482 29.807 24.9527 30.0027 25.5 30ZM22.5 21H28.5V19C28.5 18.1667 28.2083 17.4583 27.625 16.875C27.0417 16.2917 26.3333 16 25.5 16C24.6667 16 23.9583 16.2917 23.375 16.875C22.7917 17.4583 22.5 18.1667 22.5 19V21Z" fill="white"/>
</svg>
