<svg width="51" height="50" viewBox="0 0 51 50" fill="none" xmlns="http://www.w3.org/2000/svg">
<rect x="1" y="0.5" width="49" height="49" rx="7.5" fill="#1E1E1E"/>
<rect x="1" y="0.5" width="49" height="49" rx="7.5" stroke="#2A2A2A"/>
<path d="M34.5007 22C34.5007 22 34.5007 22.8505 34.152 23.9688L30.2655 20.083C30.0547 19.872 29.7688 19.7533 29.4705 19.753H26.0182C25.7667 19.7532 25.5224 19.8377 25.3245 19.993L23.9617 21.0595C23.8682 21.1328 23.7612 21.1869 23.6467 21.2188C23.5322 21.2506 23.4126 21.2596 23.2947 21.2452C23.1767 21.2308 23.0628 21.1932 22.9594 21.1347C22.856 21.0762 22.7651 20.9979 22.692 20.9042C22.5443 20.7148 22.4776 20.4746 22.5068 20.2362C22.5359 19.9977 22.6583 19.7806 22.8472 19.6323L27.4972 16H28.5007C30.092 16 31.6182 16.6321 32.7434 17.7574C33.8686 18.8826 34.5007 20.4087 34.5007 22ZM19.0387 24.4975C18.9637 24.4223 18.8746 24.3626 18.7764 24.3219C18.6783 24.2812 18.5731 24.2602 18.4669 24.2602C18.3606 24.2602 18.2554 24.2812 18.1573 24.3219C18.0592 24.3626 17.97 24.4223 17.895 24.4975L16.737 25.66C16.5852 25.8124 16.5 26.0187 16.5 26.2338C16.5 26.4488 16.5852 26.6551 16.737 26.8075C16.812 26.8827 16.9012 26.9424 16.9993 26.9831C17.0974 27.0238 17.2026 27.0448 17.3089 27.0448C17.4151 27.0448 17.5203 27.0238 17.6184 26.9831C17.7166 26.9424 17.8057 26.8827 17.8807 26.8075L19.0387 25.645C19.1905 25.4928 19.2757 25.2866 19.2757 25.0716C19.2757 24.8567 19.1905 24.6505 19.0387 24.4983M20.2357 26.065C20.3107 25.9896 20.3999 25.9297 20.4981 25.8889C20.5963 25.848 20.7016 25.827 20.808 25.827C20.9144 25.827 21.0197 25.848 21.1179 25.8889C21.2161 25.9297 21.3053 25.9896 21.3802 26.065C21.5318 26.2173 21.6169 26.4235 21.6169 26.6384C21.6169 26.8533 21.5318 27.0594 21.3802 27.2118L20.2207 28.372C20.1458 28.4473 20.0566 28.5071 19.9585 28.5478C19.8604 28.5886 19.7551 28.6096 19.6489 28.6096C19.5426 28.6096 19.4374 28.5886 19.3392 28.5478C19.2411 28.5071 19.152 28.4473 19.077 28.372C18.9254 28.2197 18.8404 28.0135 18.8404 27.7986C18.8404 27.5837 18.9254 27.3776 19.077 27.2252L20.2357 26.065ZM23.3235 28.0128C23.2485 27.9375 23.1593 27.8779 23.0612 27.8371C22.9631 27.7964 22.8579 27.7755 22.7516 27.7755C22.6454 27.7755 22.5402 27.7964 22.442 27.8371C22.3439 27.8779 22.2548 27.9375 22.1797 28.0128L21.0217 29.1737C20.8698 29.326 20.7844 29.5324 20.7844 29.7475C20.7844 29.9626 20.8698 30.169 21.0217 30.3212C21.0967 30.3966 21.1858 30.4563 21.284 30.4971C21.3821 30.5379 21.4873 30.5589 21.5936 30.5589C21.6999 30.5589 21.8051 30.5379 21.9033 30.4971C22.0014 30.4563 22.0905 30.3966 22.1655 30.3212L23.3235 29.1595C23.4753 29.0071 23.5605 28.8008 23.5605 28.5858C23.5605 28.3707 23.4753 28.1651 23.3235 28.0128ZM25.266 29.959C25.191 29.8836 25.1018 29.8237 25.0036 29.7829C24.9054 29.742 24.8001 29.721 24.6937 29.721C24.5874 29.721 24.4821 29.742 24.3839 29.7829C24.2857 29.8237 24.1965 29.8836 24.1215 29.959L22.9635 31.1207C22.8119 31.2731 22.7269 31.4792 22.7269 31.6941C22.7269 31.909 22.8119 32.1152 22.9635 32.2675C23.0385 32.3428 23.1276 32.4026 23.2257 32.4433C23.3239 32.4841 23.4291 32.5051 23.5354 32.5051C23.6416 32.5051 23.7469 32.4841 23.845 32.4433C23.9431 32.4026 24.0323 32.3428 24.1072 32.2675L25.2652 31.1058C25.417 30.9535 25.5022 30.7473 25.5022 30.5324C25.5022 30.3174 25.417 30.1112 25.2652 29.959M24.78 16.219C24.3849 16.1023 23.9782 16.0294 23.5672 16.0015L23.4997 16H23.2507C21.6594 16 20.1333 16.6321 19.0081 17.7574C17.8829 18.8826 17.2507 20.4087 17.2507 22V23.5652C17.6215 23.2636 18.0911 23.1104 18.5684 23.1355C19.0457 23.1606 19.4967 23.3621 19.8337 23.701C20.1285 23.9972 20.3085 24.3655 20.373 24.7495C20.6575 24.6843 20.9531 24.6844 21.2376 24.7496C21.5222 24.8149 21.7882 24.9437 22.0159 25.1264C22.2436 25.309 22.427 25.5408 22.5524 25.8044C22.6778 26.068 22.7419 26.3566 22.74 26.6485C22.9959 26.6473 23.2494 26.6969 23.486 26.7943C23.7226 26.8918 23.9375 27.0352 24.1183 27.2163C24.2991 27.3974 24.4422 27.6125 24.5393 27.8492C24.6364 28.086 24.6856 28.3396 24.684 28.5955C24.9393 28.5943 25.1923 28.6437 25.4283 28.7411C25.6643 28.8384 25.8786 28.9817 26.0587 29.1625C26.421 29.5265 26.6244 30.0192 26.6244 30.5328C26.6244 31.0463 26.421 31.539 26.0587 31.903L25.89 32.0725L26.8455 33.0205C26.997 33.1696 27.2011 33.2531 27.4136 33.2531C27.6262 33.2531 27.8302 33.1696 27.9817 33.0205C28.2922 32.713 28.293 32.215 27.9832 31.9067C27.8768 31.8012 27.8167 31.6578 27.8161 31.5079C27.8154 31.358 27.8743 31.214 27.9799 31.1076C28.0854 31.0012 28.2289 30.9411 28.3787 30.9404C28.5286 30.9398 28.6726 30.9987 28.779 31.1042C28.9305 31.2533 29.1346 31.3369 29.3471 31.3369C29.5597 31.3369 29.7637 31.2533 29.9152 31.1042C29.989 31.0314 30.0476 30.9447 30.0876 30.849C30.1275 30.7534 30.1482 30.6508 30.1482 30.5472C30.1483 30.4435 30.1278 30.3409 30.088 30.2452C30.0481 30.1495 29.9896 30.0627 29.916 29.9897C29.8163 29.8829 29.7618 29.7415 29.7641 29.5954C29.7663 29.4492 29.825 29.3096 29.9279 29.2058C30.0309 29.102 30.17 29.0421 30.3161 29.0387C30.4622 29.0352 30.604 29.0884 30.7117 29.1873C30.8634 29.3359 31.0674 29.4191 31.2798 29.4188C31.4922 29.4185 31.696 29.3348 31.8472 29.1857C32.1652 28.8707 32.1637 28.3593 31.86 28.057L31.8577 28.0555L30.168 26.365C30.0686 26.2584 30.0145 26.1173 30.0171 25.9716C30.0197 25.8259 30.0787 25.6868 30.1818 25.5838C30.2848 25.4807 30.4239 25.4217 30.5696 25.4191C30.7153 25.4165 30.8564 25.4706 30.963 25.57L32.94 27.5448C33.3352 27.937 33.987 27.9408 34.3297 27.601C34.671 27.2628 34.668 26.6208 34.2765 26.2315L34.275 26.23L29.298 21.2537H26.148L24.8865 22.2408C24.6378 22.4353 24.3533 22.579 24.0491 22.6636C23.7448 22.7482 23.427 22.772 23.1135 22.7337C22.8001 22.6954 22.4973 22.5957 22.2224 22.4403C21.9476 22.285 21.706 22.077 21.5115 21.8282C21.1185 21.3255 20.9413 20.6873 21.0186 20.0539C21.096 19.4205 21.4216 18.8437 21.924 18.4503L24.78 16.219Z" fill="white"/>
</svg>
