<svg width="51" height="50" viewBox="0 0 51 50" fill="none" xmlns="http://www.w3.org/2000/svg">
<rect x="1" y="0.5" width="49" height="49" rx="7.5" fill="#1E1E1E"/>
<rect x="1" y="0.5" width="49" height="49" rx="7.5" stroke="#2A2A2A"/>
<path d="M15.5 21V25.001H16.5V31H15.5V34H31.5L34.5 34.001L35.5 34V31H34.5V25.001H35.5V21L25.5 15L15.5 21ZM19.5 31V25.001H21.5V31H19.5ZM24.5 31V25.001H26.5V31H24.5ZM31.5 31H29.5V25.001H31.5V31ZM27.5 21C27.4999 21.2627 27.4481 21.5228 27.3475 21.7655C27.2469 22.0082 27.0995 22.2287 26.9137 22.4144C26.7279 22.6001 26.5073 22.7474 26.2646 22.8479C26.0219 22.9484 25.7617 23.0001 25.499 23C25.2363 22.9999 24.9762 22.9481 24.7335 22.8475C24.4908 22.7469 24.2703 22.5995 24.0846 22.4137C23.8989 22.2279 23.7516 22.0073 23.6511 21.7646C23.5506 21.5219 23.4989 21.2617 23.499 20.999C23.4991 20.4684 23.71 19.9597 24.0853 19.5846C24.4605 19.2095 24.9694 18.9989 25.5 18.999C26.0306 18.9991 26.5393 19.21 26.9144 19.5853C27.2895 19.9605 27.5001 20.4694 27.5 21Z" fill="white"/>
</svg>
