<svg width="17" height="16" viewBox="0 0 17 16" fill="none" xmlns="http://www.w3.org/2000/svg">
<path d="M2.49908 12.6667H14.4991C14.6206 12.6664 14.7397 12.6328 14.8435 12.5698C14.9474 12.5068 15.0321 12.4166 15.0885 12.309C15.145 12.2014 15.171 12.0805 15.1638 11.9592C15.1566 11.8379 15.1165 11.7209 15.0477 11.6207L9.04775 2.95407C8.79908 2.59474 8.20041 2.59474 7.95108 2.95407L1.95108 11.6207C1.88163 11.7207 1.8409 11.8378 1.83332 11.9593C1.82574 12.0808 1.8516 12.202 1.90809 12.3098C1.96458 12.4176 2.04953 12.5079 2.15372 12.5708C2.25792 12.6338 2.37736 12.6669 2.49908 12.6667Z" fill="#3BA55D"/>
</svg>
