<svg width="21" height="22" viewBox="0 0 21 22" fill="none" xmlns="http://www.w3.org/2000/svg">
<path fill-rule="evenodd" clip-rule="evenodd" d="M11.3367 0.217043L19.8367 4.96704C20.0863 5.09161 20.2961 5.28328 20.4427 5.52051C20.5893 5.75775 20.6669 6.03116 20.6667 6.31004V7.75004C20.6667 8.44004 20.1067 9.00004 19.4167 9.00004H18.6667V17H19.6667C19.932 17 20.1863 17.1054 20.3739 17.2929C20.5614 17.4805 20.6667 17.7348 20.6667 18C20.6667 18.2653 20.5614 18.5196 20.3739 18.7071C20.1863 18.8947 19.932 19 19.6667 19H1.66675C1.40153 19 1.14718 18.8947 0.959641 18.7071C0.772105 18.5196 0.666748 18.2653 0.666748 18C0.666748 17.7348 0.772105 17.4805 0.959641 17.2929C1.14718 17.1054 1.40153 17 1.66675 17H2.66675V9.00004H1.91675C1.22675 9.00004 0.666748 8.44004 0.666748 7.75004V6.31004C0.666748 5.78804 0.936748 5.30804 1.37275 5.03604L9.99575 0.217043C10.2041 0.112843 10.4338 0.0585938 10.6667 0.0585938C10.8997 0.0585938 11.1284 0.112843 11.3367 0.217043ZM15.6667 9.00004H5.66675V17H7.66675V11H9.66675V17H11.6667V11H13.6667V17H15.6667V9.00004ZM10.6667 4.00004C10.4015 4.00004 10.1472 4.1054 9.95964 4.29294C9.77211 4.48047 9.66675 4.73483 9.66675 5.00004C9.66675 5.26526 9.77211 5.51961 9.95964 5.70715C10.1472 5.89469 10.4015 6.00004 10.6667 6.00004C10.932 6.00004 11.1863 5.89469 11.3739 5.70715C11.5614 5.51961 11.6667 5.26526 11.6667 5.00004C11.6667 4.73483 11.5614 4.48047 11.3739 4.29294C11.1863 4.1054 10.932 4.00004 10.6667 4.00004Z" fill="#00B37E"/>
</svg>
