<svg width="25" height="24" viewBox="0 0 25 24" fill="none" xmlns="http://www.w3.org/2000/svg">
<g clip-path="url(#clip0_370_1184)">
<path fill-rule="evenodd" clip-rule="evenodd" d="M20.5979 0.167835C21.0946 -0.0131768 21.6327 -0.0486284 22.1489 0.0656464C22.6651 0.179921 23.138 0.439174 23.5119 0.812934C23.8859 1.18669 24.1454 1.65943 24.2599 2.17558C24.3744 2.69173 24.3392 3.22985 24.1584 3.72669L18.0316 22.0901C17.8825 22.5414 17.6202 22.9468 17.2696 23.2677C16.919 23.5886 16.492 23.8141 16.0293 23.9227C15.5677 24.0349 15.0849 24.0254 14.6281 23.895C14.1714 23.7645 13.7563 23.5177 13.4236 23.1787L10.1356 19.9061L6.68302 21.6924C6.55067 21.761 6.40271 21.794 6.25375 21.7879C6.10479 21.7819 5.95998 21.7371 5.83361 21.658C5.70725 21.5789 5.6037 21.4682 5.5332 21.3368C5.4627 21.2055 5.42767 21.058 5.43159 20.909L5.57387 15.4507L17.651 6.67869C17.7649 6.59596 17.8614 6.4916 17.935 6.37157C18.0086 6.25154 18.0578 6.1182 18.0799 5.97915C18.1019 5.8401 18.0963 5.69807 18.0635 5.56117C18.0307 5.42427 17.9712 5.29518 17.8884 5.18126C17.8057 5.06735 17.7014 4.97085 17.5813 4.89727C17.4613 4.82369 17.328 4.77447 17.1889 4.75242C17.0499 4.73037 16.9078 4.73593 16.7709 4.76877C16.634 4.80162 16.5049 4.8611 16.391 4.94383L4.10987 13.865L1.14416 10.8993C0.824537 10.5796 0.588893 10.1858 0.458194 9.75302C0.327495 9.32025 0.305792 8.86188 0.395017 8.41869C0.484578 7.93436 0.701335 7.48257 1.02306 7.10963C1.34479 6.73669 1.75992 6.45602 2.22587 6.29641H2.23273L20.5979 0.167835Z" fill="#00B37E"/>
</g>
<defs>
<clipPath id="clip0_370_1184">
<rect width="24" height="24" fill="white" transform="translate(0.333252)"/>
</clipPath>
</defs>
</svg>
