<svg width="24" height="24" viewBox="0 0 24 24" fill="none" xmlns="http://www.w3.org/2000/svg">
<path fill-rule="evenodd" clip-rule="evenodd" d="M5 14.997C5.19891 14.997 5.38968 15.076 5.53033 15.2167C5.67098 15.3573 5.75 15.5481 5.75 15.747V18C5.75 18.138 5.862 18.25 6 18.25H18C18.0663 18.25 18.1299 18.2237 18.1768 18.1768C18.2237 18.1299 18.25 18.0663 18.25 18V15.747C18.25 15.5481 18.329 15.3573 18.4697 15.2167C18.6103 15.076 18.8011 14.997 19 14.997C19.1989 14.997 19.3897 15.076 19.5303 15.2167C19.671 15.3573 19.75 15.5481 19.75 15.747V18C19.75 18.4641 19.5656 18.9092 19.2374 19.2374C18.9092 19.5656 18.4641 19.75 18 19.75H6C5.53587 19.75 5.09075 19.5656 4.76256 19.2374C4.43437 18.9092 4.25 18.4641 4.25 18V15.747C4.25 15.5481 4.32902 15.3573 4.46967 15.2167C4.61032 15.076 4.80109 14.997 5 14.997ZM12.202 4.25C12.4009 4.25 12.5917 4.32902 12.7323 4.46967C12.873 4.61032 12.952 4.80109 12.952 5V13.086C12.952 13.2849 12.873 13.4757 12.7323 13.6163C12.5917 13.757 12.4009 13.836 12.202 13.836C12.0031 13.836 11.8123 13.757 11.6717 13.6163C11.531 13.4757 11.452 13.2849 11.452 13.086V5C11.452 4.80109 11.531 4.61032 11.6717 4.46967C11.8123 4.32902 12.0031 4.25 12.202 4.25Z" fill="#00B37E"/>
<path fill-rule="evenodd" clip-rule="evenodd" d="M8.32205 10.6258C8.46095 10.4836 8.65061 10.4023 8.84936 10.3999C9.04812 10.3975 9.23971 10.474 9.38205 10.6128L12.2021 13.3678L15.0221 10.6128C15.0922 10.5425 15.1756 10.4868 15.2674 10.449C15.3592 10.4112 15.4577 10.3921 15.557 10.3926C15.6562 10.3931 15.7545 10.4134 15.8459 10.4522C15.9373 10.4909 16.0201 10.5475 16.0894 10.6185C16.1588 10.6896 16.2134 10.7737 16.25 10.866C16.2867 10.9583 16.3046 11.0569 16.3028 11.1562C16.301 11.2555 16.2795 11.3534 16.2395 11.4443C16.1996 11.5352 16.142 11.6173 16.0701 11.6858L12.7261 14.9528C12.5859 15.0896 12.3979 15.1662 12.2021 15.1662C12.0062 15.1662 11.8182 15.0896 11.6781 14.9528L8.33405 11.6858C8.192 11.5467 8.11094 11.357 8.10869 11.1583C8.10644 10.9595 8.18318 10.768 8.32205 10.6258Z" fill="#00B37E"/>
</svg>
