<svg width="17" height="16" viewBox="0 0 17 16" fill="none" xmlns="http://www.w3.org/2000/svg">
<path d="M2.49908 3.33326H14.4991C14.6206 3.33364 14.7397 3.36715 14.8435 3.43018C14.9474 3.49321 15.0321 3.58337 15.0885 3.69096C15.145 3.79856 15.171 3.9195 15.1638 4.04078C15.1566 4.16207 15.1165 4.27909 15.0477 4.37926L9.04775 13.0459C8.79908 13.4053 8.20041 13.4053 7.95108 13.0459L1.95108 4.37926C1.88163 4.2793 1.8409 4.16222 1.83332 4.04073C1.82574 3.91925 1.8516 3.79801 1.90809 3.69019C1.96458 3.58237 2.04953 3.49209 2.15372 3.42917C2.25792 3.36624 2.37736 3.33307 2.49908 3.33326Z" fill="#E74C3C"/>
</svg>
