<svg width="28" height="28" viewBox="0 0 28 28" fill="none" xmlns="http://www.w3.org/2000/svg">
<rect width="27.9103" height="28" rx="6" fill="#00B37E"/>
<g clip-path="url(#clip0_274_3700)">
<path d="M19.2051 12.7441C18.9234 13.0275 18.7078 13.3695 18.5734 13.7456C18.4391 14.1219 18.3894 14.5231 18.4278 14.9207L18.4144 14.9073C18.4539 15.3754 18.3908 15.8464 18.2295 16.2876C18.0681 16.7287 17.8125 17.1293 17.4804 17.4615C17.1482 17.7936 16.7476 18.0493 16.3064 18.2106C15.8653 18.3719 15.3943 18.4351 14.9262 18.3955L14.9396 18.4089C14.3798 18.3568 13.8174 18.4786 13.3293 18.7578C12.8412 19.037 12.4511 19.4599 12.2122 19.9689C11.9733 20.4779 11.8971 21.0482 11.9941 21.6021C12.0913 22.156 12.3568 22.6664 12.7546 23.0638C13.1524 23.4613 13.663 23.7263 14.2169 23.8228C14.7709 23.9195 15.3411 23.8428 15.8499 23.6034C16.3587 23.364 16.7813 22.9735 17.06 22.4852C17.3388 21.9968 17.4601 21.4344 17.4075 20.8745L17.4216 20.8879C17.3821 20.4199 17.4452 19.9489 17.6065 19.5077C17.7678 19.0666 18.0235 18.6659 18.3556 18.3338C18.6878 18.0017 19.0884 17.746 19.5295 17.5847C19.9707 17.4234 20.4417 17.3602 20.9098 17.3997L20.8957 17.3864C21.353 17.4275 21.8133 17.3525 22.234 17.1683C22.6546 16.9842 23.022 16.6968 23.302 16.3329C23.582 15.969 23.7657 15.5403 23.8359 15.0865C23.9061 14.6327 23.8606 14.1685 23.7037 13.7369C23.5467 13.3054 23.2834 12.9205 22.938 12.6178C22.5927 12.3151 22.1766 12.1045 21.7282 12.0056C21.2798 11.9066 20.8136 11.9223 20.373 12.0514C19.9323 12.1806 19.5314 12.4188 19.2073 12.7441H19.2051Z" fill="white"/>
<path d="M13.7242 16.6571L13.7101 16.6437C14.1079 16.6838 14.5096 16.635 14.8863 16.5008C15.2629 16.3665 15.6051 16.1504 15.8879 15.8678C16.1706 15.5852 16.3872 15.2432 16.5216 14.8666C16.6561 14.4901 16.7052 14.0885 16.6655 13.6906L16.6796 13.704C16.6401 13.2359 16.7032 12.7649 16.8645 12.3237C17.0258 11.8826 17.2815 11.482 17.6136 11.1498C17.9458 10.8177 18.3464 10.562 18.7875 10.4008C19.2287 10.2394 19.6997 10.1763 20.1678 10.2158L20.1537 10.2024C20.7136 10.255 21.2761 10.1336 21.7644 9.85471C22.2529 9.57585 22.6433 9.15312 22.8826 8.64418C23.1219 8.13525 23.1983 7.56489 23.1016 7.01089C23.0048 6.45689 22.7395 5.94624 22.3418 5.54857C21.9442 5.15091 21.4335 4.88559 20.8795 4.78882C20.3255 4.69204 19.7552 4.76852 19.2462 5.00782C18.7373 5.24711 18.3146 5.63758 18.0357 6.12596C17.7568 6.61433 17.6354 7.17685 17.688 7.73677L17.6746 7.72265C17.7142 8.19073 17.6512 8.66182 17.49 9.10302C17.3287 9.54422 17.073 9.9449 16.7409 10.2771C16.4087 10.6092 16.0081 10.8649 15.5669 11.0262C15.1256 11.1874 14.6545 11.2504 14.1865 11.2108L14.1998 11.2249C13.802 11.1849 13.4002 11.2337 13.0236 11.3679C12.647 11.502 12.3049 11.7183 12.0221 12.0009C11.7392 12.2835 11.5228 12.6255 11.3883 13.002C11.2538 13.3786 11.2047 13.7802 11.2445 14.1781L11.2311 14.1647C11.2705 14.6327 11.2072 15.1037 11.0459 15.5448C10.8845 15.9858 10.6289 16.3865 10.2968 16.7186C9.96466 17.0507 9.56409 17.3063 9.12301 17.4677C8.68192 17.629 8.21095 17.6923 7.74293 17.6529L7.7563 17.6662C7.19638 17.6136 6.63387 17.7351 6.14549 18.014C5.65711 18.2928 5.26664 18.7155 5.02735 19.2245C4.78806 19.7334 4.71157 20.3038 4.80835 20.8578C4.90513 21.4118 5.17045 21.9224 5.56811 22.3201C5.96578 22.7178 6.47643 22.9831 7.03043 23.0798C7.58443 23.1766 8.15479 23.1001 8.66373 22.8608C9.17265 22.6216 9.59539 22.2311 9.87425 21.7427C10.1531 21.2543 10.2746 20.6918 10.222 20.1319L10.2361 20.1453C10.1965 19.6772 10.2597 19.2062 10.421 18.765C10.5823 18.3239 10.838 17.9233 11.1701 17.5911C11.5023 17.259 11.9029 17.0033 12.344 16.8421C12.7852 16.6807 13.2562 16.6176 13.7242 16.6571Z" fill="white"/>
<path d="M8.74323 15.1656C9.02488 14.8823 9.24052 14.5403 9.37476 14.1641C9.50899 13.7878 9.55851 13.3865 9.51978 12.989L9.53389 13.0023C9.49436 12.5342 9.5575 12.063 9.71891 11.6217C9.88032 11.1805 10.1361 10.7798 10.4684 10.4476C10.8008 10.1154 11.2015 9.85982 11.6429 9.6986C12.0842 9.53737 12.5554 9.47443 13.0236 9.51417L13.0094 9.5008C13.5692 9.55324 14.1315 9.43175 14.6196 9.1529C15.1078 8.87406 15.498 8.45143 15.7372 7.94266C15.9763 7.43388 16.0527 6.86372 15.956 6.30993C15.8592 5.75614 15.5939 5.24568 15.1964 4.84816C14.7989 4.45064 14.2884 4.18541 13.7346 4.08864C13.1809 3.99187 12.6107 4.06827 12.102 4.30742C11.5931 4.54657 11.1705 4.93683 10.8917 5.42498C10.6128 5.91313 10.4913 6.47542 10.5438 7.03515L10.5304 7.02177C10.57 7.48982 10.5068 7.96086 10.3455 8.402C10.1841 8.84314 9.92851 9.24376 9.59637 9.5759C9.26423 9.90805 8.86361 10.1637 8.42246 10.325C7.98132 10.4863 7.51029 10.5495 7.04224 10.5099L7.05562 10.5233C6.59828 10.4823 6.13799 10.5574 5.71741 10.7416C5.29682 10.9259 4.92953 11.2133 4.6496 11.5773C4.36966 11.9412 4.18612 12.37 4.11599 12.8237C4.04586 13.2775 4.09141 13.7417 4.2484 14.1731C4.4054 14.6046 4.66878 14.9895 5.01413 15.2921C5.35948 15.5948 5.77562 15.8053 6.224 15.9043C6.67237 16.0032 7.13848 15.9874 7.57912 15.8583C8.01976 15.7291 8.42067 15.4909 8.74471 15.1656H8.74323Z" fill="white"/>
</g>
<defs>
<clipPath id="clip0_274_3700">
<rect width="19.9103" height="20" fill="white" transform="translate(4 4)"/>
</clipPath>
</defs>
</svg>
