<svg width="508" height="256" viewBox="0 0 508 256" fill="none" xmlns="http://www.w3.org/2000/svg">
<rect width="508" height="256" rx="16" fill="#F5F5F5"/>
<path d="M314.962 222.537C315.23 224.332 313.84 225.945 312.025 225.945L263.025 225.945L260.239 204.96L225.644 207.08C222.398 207.279 221.786 211.798 224.862 212.853L263.025 225.945L260.239 204.96L258.999 193.704C258.805 191.945 260.182 190.409 261.951 190.409L307.609 190.409C309.08 190.409 310.33 191.485 310.547 192.94L314.962 222.537Z" fill="black"/>
<path d="M263.025 225.945L224.862 212.853C221.786 211.798 222.398 207.279 225.644 207.08L260.239 204.96M263.025 225.945L260.239 204.96M263.025 225.945L312.025 225.945C313.84 225.945 315.23 224.332 314.962 222.537L310.547 192.94C310.33 191.485 309.08 190.409 307.609 190.409L261.951 190.409C260.182 190.409 258.805 191.945 258.999 193.704L260.239 204.96" stroke="black" stroke-width="1.78199"/>
<path d="M175.383 63.9668H363.845C367.232 63.967 370.107 66.45 370.602 69.8008L387.745 185.913C388.354 190.038 385.157 193.741 380.987 193.741H192.526C189.139 193.741 186.264 191.259 185.77 187.908L168.626 71.7959C168.017 67.6709 171.213 63.9671 175.383 63.9668Z" fill="black" stroke="black" stroke-width="1.78199"/>
<path d="M190.583 73.7305H374.892C377.696 73.7305 380.074 75.789 380.477 78.5635L394.836 177.523C395.33 180.927 392.69 183.977 389.251 183.977H205.335C202.54 183.977 200.167 181.931 199.754 179.166L185.001 80.2061C184.493 76.7959 187.135 73.7306 190.583 73.7305Z" fill="white" stroke="black" stroke-width="1.78199"/>
<path d="M190.649 74.0645H374.959C377.762 74.0645 380.141 76.123 380.544 78.8975L394.903 177.857C395.397 181.261 392.757 184.311 389.318 184.311H205.402C202.607 184.311 200.233 182.265 199.821 179.5L185.068 80.54C184.56 77.1299 187.202 74.0645 190.649 74.0645Z" fill="white" stroke="black" stroke-width="1.78199"/>
<circle cx="290.459" cy="129.251" r="35.5851" fill="white" stroke="black" stroke-width="1.78199"/>
<path d="M304.816 114.766L284.691 134.891L276.102 126.303C274.474 124.675 271.834 124.675 270.206 126.303C268.577 127.932 268.577 130.571 270.206 132.2L281.742 143.736C282.556 144.55 283.624 144.957 284.691 144.957C285.757 144.957 286.825 144.55 287.639 143.736L310.712 120.663C312.342 119.035 312.342 116.394 310.713 114.767C309.085 113.138 306.445 113.138 304.816 114.766Z" fill="black" stroke="black" stroke-width="1.78199"/>
<path d="M392.694 205.932L169.912 205.932C160.029 205.931 151.599 198.779 149.987 189.029C147.954 176.727 157.443 165.54 169.912 165.54L392.694 165.54C402.533 165.54 410.94 172.63 412.6 182.327C414.712 194.664 405.21 205.932 392.694 205.932Z" fill="white" stroke="black" stroke-width="1.78199"/>
<path d="M181.511 177.799L181.147 182.085L180.983 184.013L182.554 182.884L186.213 180.256L187.756 183.01L182.833 184.902L180.667 185.734L182.833 186.566L187.756 188.458L186.213 191.212L182.554 188.585L180.983 187.456L181.147 189.384L181.511 193.669L178.176 193.669L178.6 189.396L178.795 187.435L177.194 188.585L173.524 191.22L171.931 188.457L176.913 186.567L179.108 185.734L176.913 184.901L171.931 183.011L173.524 180.248L177.194 182.884L178.795 184.033L178.6 182.072L178.175 177.799L181.511 177.799Z" fill="black" stroke="black" stroke-width="1.78199"/>
<path d="M210.594 177.799L210.229 182.085L210.065 184.013L211.637 182.884L215.296 180.256L216.839 183.01L211.915 184.902L209.75 185.734L211.915 186.566L216.839 188.458L215.296 191.212L211.637 188.585L210.065 187.456L210.229 189.384L210.594 193.669L207.259 193.669L207.683 189.396L207.878 187.435L206.276 188.585L202.606 191.22L201.014 188.457L205.995 186.567L208.19 185.734L205.995 184.901L201.014 183.011L202.606 180.248L206.276 182.884L207.878 184.033L207.683 182.072L207.258 177.799L210.594 177.799Z" fill="black" stroke="black" stroke-width="1.78199"/>
<path d="M239.677 177.799L239.313 182.085L239.149 184.013L240.72 182.884L244.379 180.256L245.922 183.01L240.999 184.902L238.833 185.734L240.999 186.566L245.922 188.458L244.379 191.212L240.72 188.585L239.149 187.456L239.313 189.384L239.677 193.669L236.342 193.669L236.766 189.396L236.961 187.435L235.36 188.585L231.69 191.22L230.097 188.457L235.079 186.567L237.274 185.734L235.079 184.901L230.097 183.011L231.69 180.248L235.36 182.884L236.961 184.033L236.766 182.072L236.341 177.799L239.677 177.799Z" fill="black" stroke="black" stroke-width="1.78199"/>
<path d="M268.76 177.799L268.396 182.085L268.231 184.013L269.803 182.884L273.462 180.256L275.005 183.01L270.081 184.902L267.916 185.734L270.081 186.566L275.005 188.458L273.462 191.212L269.803 188.585L268.231 187.456L268.396 189.384L268.76 193.669L265.425 193.669L265.849 189.396L266.044 187.435L264.442 188.585L260.772 191.22L259.18 188.457L264.161 186.567L266.356 185.734L264.161 184.901L259.18 183.011L260.772 180.248L264.442 182.884L266.044 184.033L265.849 182.072L265.424 177.799L268.76 177.799Z" fill="black" stroke="black" stroke-width="1.78199"/>
<path d="M297.843 177.799L297.479 182.085L297.314 184.013L298.886 182.884L302.545 180.256L304.088 183.01L299.164 184.902L296.999 185.734L299.164 186.566L304.088 188.458L302.545 191.212L298.886 188.585L297.314 187.456L297.479 189.384L297.843 193.669L294.508 193.669L294.932 189.396L295.127 187.435L293.525 188.585L289.855 191.22L288.263 188.457L293.244 186.567L295.439 185.734L293.244 184.901L288.263 183.011L289.855 180.248L293.525 182.884L295.127 184.033L294.932 182.072L294.507 177.799L297.843 177.799Z" fill="black" stroke="black" stroke-width="1.78199"/>
<path d="M326.925 177.799L326.561 182.085L326.397 184.013L327.968 182.884L331.627 180.256L333.17 183.01L328.247 184.902L326.082 185.734L328.247 186.566L333.17 188.458L331.627 191.212L327.968 188.585L326.397 187.456L326.561 189.384L326.925 193.669L323.59 193.669L324.014 189.396L324.209 187.435L322.608 188.585L318.938 191.22L317.345 188.457L322.327 186.567L324.522 185.734L322.327 184.901L317.345 183.011L318.938 180.248L322.608 182.884L324.209 184.033L324.014 182.072L323.589 177.799L326.925 177.799Z" fill="black" stroke="black" stroke-width="1.78199"/>
<path d="M356.008 177.799L355.644 182.085L355.479 184.013L357.051 182.884L360.71 180.256L362.253 183.01L357.329 184.902L355.164 185.734L357.329 186.566L362.253 188.458L360.71 191.212L357.051 188.585L355.479 187.456L355.644 189.384L356.008 193.669L352.673 193.669L353.097 189.396L353.292 187.435L351.69 188.585L348.021 191.22L346.428 188.457L351.409 186.567L353.604 185.734L351.409 184.901L346.428 183.011L348.021 180.248L351.69 182.884L353.292 184.033L353.097 182.072L352.672 177.799L356.008 177.799Z" fill="black" stroke="black" stroke-width="1.78199"/>
<path d="M385.091 177.799L384.727 182.085L384.563 184.013L386.134 182.884L389.793 180.256L391.336 183.01L386.413 184.902L384.248 185.734L386.413 186.566L391.336 188.458L389.793 191.212L386.134 188.585L384.563 187.456L384.727 189.384L385.091 193.669L381.756 193.669L382.18 189.396L382.375 187.435L380.774 188.585L377.104 191.22L375.511 188.457L380.493 186.567L382.688 185.734L380.493 184.901L375.511 183.011L377.104 180.248L380.774 182.884L382.375 184.033L382.18 182.072L381.755 177.799L385.091 177.799Z" fill="black" stroke="black" stroke-width="1.78199"/>
<path d="M109.788 115.924H163.462C164.376 115.924 165.272 115.667 166.048 115.183C170.214 112.583 168.372 106.152 163.462 106.152H125.446C115.069 106.152 106.658 97.7408 106.658 87.3646C106.658 84.1047 107.488 81.0388 108.949 78.3666C109.227 78.3544 109.507 78.3482 109.788 78.3482H221.495H292.658C300.568 78.3482 311.897 73.4594 316.835 66.5384C322.929 63.4323 327.103 57.098 327.103 49.7889C327.103 39.4127 318.691 31.0011 308.315 31.0011H166.27C165.356 31.0011 164.46 31.2578 163.684 31.742C159.518 34.3417 161.36 40.7726 166.27 40.7726H292.657C303.034 40.7726 319.292 49.1842 319.292 59.5604C319.292 62.0262 318.374 64.381 316.835 66.5384C314.278 67.8418 311.382 68.5768 308.315 68.5768H125.446C118.329 68.5768 112.137 72.5333 108.949 78.3666C98.9618 78.8057 91 87.0411 91 97.136C91 107.512 99.4116 115.924 109.788 115.924Z" fill="#00B37E"/>
<path d="M109.788 115.924H163.462C164.376 115.924 165.272 115.667 166.048 115.183C170.214 112.583 168.372 106.152 163.462 106.152H125.446C115.069 106.152 106.658 97.7408 106.658 87.3646C106.658 84.1047 107.488 81.0388 108.949 78.3666C109.227 78.3544 109.507 78.3482 109.788 78.3482H221.495H292.658C300.568 78.3482 311.897 73.4594 316.835 66.5384C322.929 63.4323 327.103 57.098 327.103 49.7889C327.103 39.4127 318.691 31.0011 308.315 31.0011H166.27C165.356 31.0011 164.46 31.2578 163.684 31.742C159.518 34.3417 161.36 40.7726 166.27 40.7726H292.657C303.034 40.7726 319.292 49.1842 319.292 59.5604C319.292 62.0262 318.374 64.381 316.835 66.5384C314.278 67.8418 311.382 68.5768 308.315 68.5768H125.446C118.329 68.5768 112.137 72.5333 108.949 78.3666C98.9618 78.8057 91 87.0411 91 97.136C91 107.512 99.4116 115.924 109.788 115.924Z" stroke="black" stroke-width="1.78199" stroke-linejoin="bevel"/>
<path d="M359.961 38.6113C361.814 37.2742 364.355 37.2743 366.209 38.6113C373.301 43.7271 381.337 46.6725 390.766 47.6416C392.604 47.8306 394.031 49.3162 394.065 51.0996C394.282 62.4439 394.498 74.3234 390.864 84.8906C387.256 95.3828 379.83 104.63 364.591 110.643C363.694 110.996 362.673 111.019 361.761 110.709L361.579 110.643L360.871 110.358C346.111 104.341 338.86 95.2195 335.309 84.8916C331.675 74.3247 331.892 62.4455 332.108 51.1016C332.142 49.317 333.57 47.8299 335.41 47.6406C344.837 46.6711 352.87 43.7263 359.961 38.6113Z" fill="#00B37E" stroke="black" stroke-width="1.78199"/>
<path d="M375.415 61.7257L358.946 78.1934L351.919 71.1659C350.586 69.8338 348.426 69.8338 347.094 71.1659C345.761 72.4988 345.761 74.6589 347.094 75.9915L356.534 85.4316C357.2 86.0976 358.073 86.4306 358.946 86.4306C359.819 86.4306 360.693 86.0976 361.359 85.4316L380.24 66.5513C381.573 65.2188 381.573 63.0583 380.24 61.7262C378.908 60.3937 376.747 60.3932 375.415 61.7257Z" fill="white" stroke="black" stroke-width="1.78199"/>
</svg>
