<svg width="17" height="15" viewBox="0 0 17 15" fill="none" xmlns="http://www.w3.org/2000/svg">
<path fill-rule="evenodd" clip-rule="evenodd" d="M3.07399 0.46405L0.0117781 6.89492C-0.000466927 6.91822 -0.00468428 6.94491 -0.000220305 6.97085C0.00424367 6.99679 0.0171397 7.02053 0.0364689 7.0384L8.30268 14.9633C8.32647 14.9848 8.35735 14.9966 8.38937 14.9966C8.42139 14.9966 8.45228 14.9848 8.47607 14.9633L16.7472 7.0384C16.7663 7.02041 16.7791 6.99667 16.7836 6.97079C16.788 6.9449 16.7839 6.91827 16.7719 6.89492L13.7097 0.46405C13.7016 0.441682 13.6866 0.422452 13.6669 0.409102C13.6472 0.395752 13.6238 0.388963 13.6 0.389703H3.18263C3.15915 0.390345 3.13635 0.397685 3.11691 0.410858C3.09746 0.42403 3.08219 0.442486 3.07289 0.46405H3.07399Z" fill="#50AF95"/>
<path fill-rule="evenodd" clip-rule="evenodd" d="M9.45535 7.55279C9.39609 7.55773 9.08938 7.57748 8.40654 7.57748C7.86252 7.57748 7.47652 7.56267 7.33798 7.55279C5.23569 7.45897 3.66755 7.09272 3.66755 6.65734C3.66755 6.22196 5.23569 5.85105 7.33798 5.75722V7.18682C7.47515 7.1967 7.86746 7.22139 8.41148 7.22139C9.06441 7.22139 9.39088 7.19176 9.45041 7.18682V5.75722C11.5478 5.85105 13.1159 6.21729 13.1159 6.6524C13.1159 7.08751 11.5522 7.45897 9.45535 7.55279ZM9.45535 5.61374V4.33229H12.384V2.37842H4.40964V4.33229H7.33798V5.61374C4.9586 5.72348 3.16797 6.19233 3.16797 6.76132C3.16797 7.3303 4.9586 7.79531 7.33798 7.90889V12.01H9.45535V7.90889C11.8298 7.79915 13.6158 7.33003 13.6158 6.76625C13.6158 6.20248 11.8298 5.72238 9.45535 5.61401V5.61374Z" fill="white"/>
</svg>
