<svg width="20" height="20" viewBox="0 0 20 20" fill="none" xmlns="http://www.w3.org/2000/svg">
<path d="M16.1985 5.99875C16.9941 5.99875 17.7572 6.31482 18.3198 6.87743C18.8824 7.44004 19.1985 8.2031 19.1985 8.99875V16.1988C19.1985 16.9944 18.8824 17.7575 18.3198 18.3201C17.7572 18.8827 16.9941 19.1988 16.1985 19.1988H8.99845C8.2028 19.1988 7.43974 18.8827 6.87713 18.3201C6.31452 17.7575 5.99845 16.9944 5.99845 16.1988V8.99875C5.99845 8.2031 6.31452 7.44004 6.87713 6.87743C7.43974 6.31482 8.2028 5.99875 8.99845 5.99875H16.1985ZM10.1985 13.1988C9.72106 13.1988 9.26323 13.3884 8.92566 13.726C8.5881 14.0635 8.39845 14.5214 8.39845 14.9988C8.39845 15.4761 8.5881 15.934 8.92566 16.2715C9.26323 16.6091 9.72106 16.7988 10.1985 16.7988C10.6758 16.7988 11.1337 16.6091 11.4712 16.2715C11.8088 15.934 11.9985 15.4761 11.9985 14.9988C11.9985 14.5214 11.8088 14.0635 11.4712 13.726C11.1337 13.3884 10.6758 13.1988 10.1985 13.1988ZM10.1985 14.3988C10.3576 14.3988 10.5102 14.462 10.6227 14.5745C10.7352 14.687 10.7985 14.8396 10.7985 14.9988C10.7985 15.1579 10.7352 15.3105 10.6227 15.423C10.5102 15.5355 10.3576 15.5988 10.1985 15.5988C10.0393 15.5988 9.88671 15.5355 9.77419 15.423C9.66167 15.3105 9.59845 15.1579 9.59845 14.9988C9.59845 14.8396 9.66167 14.687 9.77419 14.5745C9.88671 14.462 10.0393 14.3988 10.1985 14.3988ZM13.7985 14.3988C13.6393 14.3988 13.4867 14.462 13.3742 14.5745C13.2617 14.687 13.1985 14.8396 13.1985 14.9988C13.1985 15.1579 13.2617 15.3105 13.3742 15.423C13.4867 15.5355 13.6393 15.5988 13.7985 15.5988H16.7985C16.9576 15.5988 17.1102 15.5355 17.2227 15.423C17.3352 15.3105 17.3985 15.1579 17.3985 14.9988C17.3985 14.8396 17.3352 14.687 17.2227 14.5745C17.1102 14.462 16.9576 14.3988 16.7985 14.3988H13.7985ZM9.17845 0.101953C9.94689 -0.103654 10.7655 0.00434464 11.4543 0.4022C12.1432 0.800056 12.6458 1.45519 12.8517 2.22355L13.5417 4.79875H8.99845C7.88454 4.79875 6.81626 5.24125 6.02861 6.02891C5.24095 6.81656 4.79845 7.88484 4.79845 8.99875V14.814C4.14963 14.8001 3.52277 14.5763 3.01194 14.176C2.5011 13.7758 2.13384 13.2206 1.96525 12.594L0.101654 5.63875C-0.103591 4.87049 0.00458676 4.05216 0.402412 3.36362C0.800238 2.67507 1.45516 2.17265 2.22325 1.96675L9.17845 0.101953ZM10.1985 8.39875C9.72106 8.39875 9.26323 8.5884 8.92566 8.92596C8.5881 9.26353 8.39845 9.72136 8.39845 10.1988C8.39845 10.6761 8.5881 11.134 8.92566 11.4715C9.26323 11.8091 9.72106 11.9988 10.1985 11.9988C10.6758 11.9988 11.1337 11.8091 11.4712 11.4715C11.8088 11.134 11.9985 10.6761 11.9985 10.1988C11.9985 9.72136 11.8088 9.26353 11.4712 8.92596C11.1337 8.5884 10.6758 8.39875 10.1985 8.39875ZM10.1985 9.59875C10.3576 9.59875 10.5102 9.66197 10.6227 9.77449C10.7352 9.88701 10.7985 10.0396 10.7985 10.1988C10.7985 10.3579 10.7352 10.5105 10.6227 10.623C10.5102 10.7355 10.3576 10.7988 10.1985 10.7988C10.0393 10.7988 9.88671 10.7355 9.77419 10.623C9.66167 10.5105 9.59845 10.3579 9.59845 10.1988C9.59845 10.0396 9.66167 9.88701 9.77419 9.77449C9.88671 9.66197 10.0393 9.59875 10.1985 9.59875ZM13.7985 9.59875C13.6393 9.59875 13.4867 9.66197 13.3742 9.77449C13.2617 9.88701 13.1985 10.0396 13.1985 10.1988C13.1985 10.3579 13.2617 10.5105 13.3742 10.623C13.4867 10.7355 13.6393 10.7988 13.7985 10.7988H16.7985C16.9576 10.7988 17.1102 10.7355 17.2227 10.623C17.3352 10.5105 17.3985 10.3579 17.3985 10.1988C17.3985 10.0396 17.3352 9.88701 17.2227 9.77449C17.1102 9.66197 16.9576 9.59875 16.7985 9.59875H13.7985Z" fill="#00B37E"/>
</svg>
