<svg width="29" height="22" viewBox="0 0 29 22" fill="none" xmlns="http://www.w3.org/2000/svg">
<path d="M0.5 18.5C0.5 19.4283 0.868749 20.3185 1.52513 20.9749C2.1815 21.6313 3.07174 22 4 22H25C25.9283 22 26.8185 21.6313 27.4749 20.9749C28.1313 20.3185 28.5 19.4283 28.5 18.5V8.875H0.5V18.5ZM4.625 13.75C4.625 13.2527 4.82254 12.7758 5.17417 12.4242C5.52581 12.0725 6.00272 11.875 6.5 11.875H9.5C9.99728 11.875 10.4742 12.0725 10.8258 12.4242C11.1775 12.7758 11.375 13.2527 11.375 13.75V15C11.375 15.4973 11.1775 15.9742 10.8258 16.3258C10.4742 16.6775 9.99728 16.875 9.5 16.875H6.5C6.00272 16.875 5.52581 16.6775 5.17417 16.3258C4.82254 15.9742 4.625 15.4973 4.625 15V13.75ZM25 0H4C3.07174 0 2.1815 0.368749 1.52513 1.02513C0.868749 1.6815 0.5 2.57174 0.5 3.5V5.125H28.5V3.5C28.5 2.57174 28.1313 1.6815 27.4749 1.02513C26.8185 0.368749 25.9283 0 25 0Z" fill="#00B37E"/>
</svg>
