<svg width="14" height="11" viewBox="0 0 14 11" fill="none" xmlns="http://www.w3.org/2000/svg">
<path d="M1.00006 10.6667H13.0001C13.1216 10.6664 13.2406 10.6328 13.3445 10.5698C13.4484 10.5068 13.5331 10.4166 13.5895 10.309C13.646 10.2014 13.672 10.0805 13.6648 9.95921C13.6576 9.83793 13.6175 9.72091 13.5487 9.62074L7.54872 0.95407C7.30006 0.594737 6.70139 0.594737 6.45206 0.95407L0.452057 9.62074C0.382607 9.7207 0.34188 9.83778 0.3343 9.95927C0.326721 10.0808 0.35258 10.202 0.409066 10.3098C0.465553 10.4176 0.550508 10.5079 0.6547 10.5708C0.758892 10.6338 0.878337 10.6669 1.00006 10.6667Z" fill="#3BA55D"/>
</svg>
